<?xml version="1.0" standalone="no"?>
<!DOCTYPE svg PUBLIC "-//W3C//DTD SVG 20010904//EN"
 "http://www.w3.org/TR/2001/REC-SVG-20010904/DTD/svg10.dtd">
<svg version="1.0" xmlns="http://www.w3.org/2000/svg"
 width="236.000000pt" height="256.000000pt" viewBox="0 0 236.000000 256.000000"
 preserveAspectRatio="xMidYMid meet">
<metadata>
Created by potrace 1.15, written by Peter Selinger 2001-2017
</metadata>
<g transform="translate(0.000000,256.000000) scale(0.100000,-0.100000)"
fill="#000000" stroke="none">
<path d="M1136 2358 c-13 -18 -16 -56 -16 -213 0 -185 23 -552 36 -564 3 -3
92 -7 198 -9 l193 -3 6 38 c4 21 7 66 7 101 0 55 2 63 17 60 10 -2 45 -45 78
-95 87 -132 102 -146 147 -140 69 9 278 123 278 152 0 18 -85 131 -137 182
-49 48 -53 64 -18 83 58 31 105 121 105 200 0 63 -26 117 -80 163 -72 61 -114
67 -478 67 -320 0 -321 0 -336 -22z m491 -103 c56 -39 57 -231 2 -286 -11 -11
-33 -19 -54 -19 -34 0 -35 1 -34 38 1 79 17 260 23 271 10 16 38 14 63 -4z"/>
<path d="M545 2361 c-3 -6 -4 -65 -1 -133 2 -68 1 -203 -3 -300 -9 -227 -12
-233 -113 -224 -38 4 -86 13 -107 21 l-38 13 -6 -66 c-7 -79 -5 -81 92 -114
94 -33 288 -33 376 0 90 33 158 84 189 142 24 44 29 68 37 185 15 195 8 463
-11 475 -20 13 -407 13 -415 1z"/>
<path d="M1010 1055 c-265 -59 -470 -266 -524 -527 -20 -96 -21 -178 -3 -178
7 0 36 6 63 14 27 8 77 20 112 27 l62 12 0 133 c0 83 -4 134 -10 134 -24 0 -4
39 88 165 61 85 104 134 115 135 10 0 45 -18 77 -40 32 -22 61 -40 64 -40 2 0
12 7 21 16 13 14 20 14 45 4 27 -11 29 -15 24 -49 -6 -35 -3 -39 36 -65 l41
-27 77 25 c88 29 169 41 207 32 32 -8 85 -63 85 -88 0 -11 -8 -18 -20 -18 -19
0 -20 -7 -20 -159 l0 -158 109 -26 c60 -15 116 -29 124 -33 25 -9 29 39 12
148 -12 82 -24 121 -61 198 -83 171 -247 306 -432 356 -84 22 -215 26 -292 9z"/>
<path d="M837 796 l-77 -103 0 -143 0 -142 33 8 c17 3 84 12 147 18 l115 11 3
128 c3 123 3 127 25 128 15 1 17 3 5 6 -9 2 -49 47 -88 99 -40 52 -76 94 -79
94 -4 0 -41 -47 -84 -104z m137 -82 c11 -4 16 -19 16 -45 l0 -39 -75 -1 c-41
-1 -81 -2 -87 -3 -21 -2 -22 66 -2 81 18 13 119 18 148 7z m-14 -173 l0 -68
-37 -7 c-21 -3 -59 -6 -85 -6 l-48 0 0 45 c0 25 5 45 10 45 6 0 10 11 10 24 0
26 8 28 118 34 l32 2 0 -69z"/>
<path d="M1332 765 c-78 -24 -77 -21 -30 -67 40 -40 42 -42 20 -46 -22 -3 -23
-6 -20 -110 l3 -107 43 -3 42 -3 0 175 c0 97 -3 176 -7 175 -5 0 -27 -6 -51
-14z"/>
<path d="M947 399 c-114 -12 -247 -36 -367 -65 -107 -27 -244 -73 -237 -81 2
-2 16 1 31 7 54 20 252 62 385 80 358 50 668 33 1020 -56 74 -18 137 -32 139
-30 7 8 -211 74 -328 100 -233 52 -443 66 -643 45z"/>
</g>
</svg>
